<svg width="86" height="86" viewBox="0 0 86 86" fill="none" xmlns="http://www.w3.org/2000/svg">
<rect x="21.5" y="21.5" width="43" height="43" rx="21.5" stroke="#A9C0FF" stroke-width="43"/>
<rect x="6" y="6" width="74" height="74" rx="37" fill="#FE902F"/>
<path d="M47 55L39 52.2L32.8 54.6C32.3556 54.7778 31.9444 54.728 31.5667 54.4507C31.1889 54.1733 31 53.8009 31 53.3333V34.6667C31 34.3778 31.0836 34.1222 31.2507 33.9C31.4178 33.6778 31.6453 33.5111 31.9333 33.4L39 31L47 33.8L53.2 31.4C53.6444 31.2222 54.0556 31.2724 54.4333 31.5507C54.8111 31.8289 55 32.2009 55 32.6667V51.3333C55 51.6222 54.9169 51.8778 54.7507 52.1C54.5844 52.3222 54.3564 52.4889 54.0667 52.6L47 55ZM45.6667 51.7333V36.1333L40.3333 34.2667V49.8667L45.6667 51.7333ZM48.3333 51.7333L52.3333 50.4V34.6L48.3333 36.1333V51.7333ZM33.6667 51.4L37.6667 49.8667V34.2667L33.6667 35.6V51.4Z" fill="white"/>
</svg>
