<svg width="24" height="25" viewBox="0 0 24 25" fill="none" xmlns="http://www.w3.org/2000/svg">
<path d="M11.9996 5.36365C12.9605 5.36365 13.8846 5.72169 14.5934 6.36365L14.7321 6.49548C15.4565 7.21996 15.8638 8.20242 15.8639 9.22693C15.8639 10.1877 15.5058 11.1119 14.8639 11.8207L14.7321 11.9594C14.0075 12.6839 13.0243 13.0912 11.9996 13.0912C11.0391 13.0911 10.1155 12.7329 9.40686 12.0912L9.26819 11.9594C8.54362 11.2348 8.13635 10.2516 8.13635 9.22693L8.14124 9.03552C8.18549 8.14421 8.53731 7.29564 9.13635 6.63416L9.26819 6.49548C9.94743 5.81624 10.8533 5.41595 11.8082 5.36853L11.9996 5.36365ZM11.9996 6.54529C11.3774 6.54537 10.7775 6.76181 10.3004 7.15271L10.1041 7.33142C9.60127 7.83428 9.31809 8.51579 9.31799 9.22693C9.31799 9.84932 9.53436 10.4499 9.92542 10.9271L10.1041 11.1234C10.607 11.6262 11.2886 11.9095 11.9996 11.9095C12.7109 11.9095 13.3932 11.6264 13.8961 11.1234C14.3991 10.6205 14.6823 9.93819 14.6823 9.22693C14.6822 8.60479 14.4657 8.0048 14.0748 7.52771L13.8961 7.33142C13.3932 6.82848 12.7109 6.54529 11.9996 6.54529Z" fill="black" stroke="black"/>
<path d="M12 1C18.3511 1 23.5 6.14887 23.5 12.5C23.5 18.8511 18.3511 24 12 24C5.64887 24 0.5 18.8511 0.5 12.5C0.5 6.14887 5.64887 1 12 1ZM12.0703 16.3633C10.9251 16.3624 9.7944 16.604 8.75195 17.0693L8.31055 17.2822C7.1495 17.887 6.15185 18.7636 5.40234 19.8369L5.13672 20.2178L5.49707 20.5107C7.33425 22.0066 9.63182 22.8222 12.001 22.8184L12 22.8174C14.4109 22.821 16.7465 21.9771 18.5977 20.4326L18.9541 20.1357L18.6836 19.7578C18.025 18.8382 17.1826 18.0679 16.2119 17.4941L15.7881 17.2598C14.6379 16.6694 13.3631 16.3622 12.0703 16.3633ZM15.3027 2.72559C13.8476 2.23402 12.3019 2.07444 10.7793 2.25586L10.4746 2.2959C8.85444 2.53806 7.31532 3.16309 5.98438 4.11816C4.65334 5.07333 3.56847 6.33159 2.82031 7.78906C2.07215 9.24659 1.68185 10.8617 1.68164 12.5L1.69141 12.9473C1.78632 15.1698 2.58509 17.2115 3.86914 18.8535L4.26855 19.3643L4.66113 18.8486C5.47583 17.7793 6.51201 16.9003 7.69727 16.2705L7.93652 16.1475C9.14138 15.5512 10.4601 15.2234 11.8018 15.1855L12.0703 15.1816H12.0713C13.3985 15.1801 14.7098 15.4631 15.917 16.0098L16.1562 16.1221C17.4286 16.7424 18.5426 17.6455 19.4131 18.7617L19.8125 19.2734L20.2051 18.7578C21.1364 17.5363 21.7825 16.1228 22.0977 14.6221L22.1562 14.3213C22.4272 12.8094 22.3568 11.2574 21.9521 9.77832L21.8672 9.4834C21.388 7.9168 20.5428 6.48661 19.4014 5.31152C18.3312 4.20988 17.0292 3.36186 15.5918 2.82812L15.3027 2.72559Z" fill="black" stroke="black"/>
</svg>
