<svg width="21" height="21" viewBox="0 0 21 21" fill="none" xmlns="http://www.w3.org/2000/svg">
<path d="M3 20.5C2.3125 20.5 1.72417 20.2487 1.235 19.7462C0.745833 19.2437 0.500833 18.6389 0.5 17.9318V15.3636C0.5 14.9997 0.62 14.695 0.86 14.4493C1.1 14.2036 1.39667 14.0803 1.75 14.0795C2.10333 14.0786 2.40041 14.2019 2.64125 14.4493C2.88208 14.6967 3.00166 15.0014 3 15.3636V17.9318H18V15.3636C18 14.9997 18.12 14.695 18.36 14.4493C18.6 14.2036 18.8967 14.0803 19.25 14.0795C19.6033 14.0786 19.9004 14.2019 20.1412 14.4493C20.3821 14.6967 20.5016 15.0014 20.5 15.3636V17.9318C20.5 18.638 20.2554 19.2429 19.7662 19.7462C19.2771 20.2496 18.6883 20.5009 18 20.5H3ZM9.24999 4.89809L6.90624 7.30579C6.65624 7.56261 6.35958 7.68589 6.01625 7.67561C5.67291 7.66534 5.37583 7.53137 5.125 7.27369C4.89583 7.01687 4.77583 6.71724 4.765 6.37481C4.75416 6.03238 4.87416 5.73276 5.125 5.47594L9.62499 0.853149C9.74999 0.724738 9.88541 0.633995 10.0312 0.580918C10.1771 0.527842 10.3333 0.500876 10.5 0.50002C10.6667 0.499164 10.8229 0.52613 10.9687 0.580918C11.1146 0.635707 11.25 0.72645 11.375 0.853149L15.875 5.47594C16.125 5.73276 16.245 6.03238 16.235 6.37481C16.225 6.71724 16.105 7.01687 15.875 7.27369C15.625 7.53051 15.3283 7.66448 14.985 7.67561C14.6417 7.68674 14.3446 7.56347 14.0937 7.30579L11.75 4.89809V14.0795C11.75 14.4433 11.63 14.7485 11.39 14.995C11.15 15.2416 10.8533 15.3644 10.5 15.3636C10.1467 15.3627 9.84999 15.2394 9.60999 14.9937C9.36999 14.7481 9.24999 14.4433 9.24999 14.0795V4.89809Z" fill="black"/>
</svg>
